<svg width="257" height="108" viewBox="0 0 257 108" fill="none" xmlns="http://www.w3.org/2000/svg">
<path d="M86.5625 47H82.0781V24.5938H86.5625V33.5625H95.5156V24.5938H100V47H95.5156V38.0469H86.5625V47ZM119.672 47H118.641L116.984 44.7031C116.578 45.0677 116.146 45.4115 115.688 45.7344C115.24 46.0469 114.766 46.3229 114.266 46.5625C113.766 46.7917 113.25 46.974 112.719 47.1094C112.198 47.2448 111.667 47.3125 111.125 47.3125C109.948 47.3125 108.839 47.1146 107.797 46.7188C106.766 46.3229 105.859 45.75 105.078 45C104.307 44.2396 103.698 43.3125 103.25 42.2188C102.802 41.125 102.578 39.8802 102.578 38.4844C102.578 37.1823 102.802 35.9896 103.25 34.9062C103.698 33.8125 104.307 32.875 105.078 32.0938C105.859 31.3125 106.766 30.7083 107.797 30.2812C108.839 29.8438 109.948 29.625 111.125 29.625C111.667 29.625 112.203 29.6927 112.734 29.8281C113.266 29.9635 113.781 30.151 114.281 30.3906C114.781 30.6302 115.255 30.9115 115.703 31.2344C116.161 31.5573 116.589 31.9062 116.984 32.2812L118.641 30.2969H119.672V47ZM115.375 38.4844C115.375 37.901 115.26 37.3385 115.031 36.7969C114.812 36.2448 114.51 35.7604 114.125 35.3438C113.74 34.9167 113.286 34.5781 112.766 34.3281C112.255 34.0677 111.708 33.9375 111.125 33.9375C110.542 33.9375 109.99 34.0365 109.469 34.2344C108.958 34.4323 108.51 34.724 108.125 35.1094C107.75 35.4948 107.453 35.974 107.234 36.5469C107.016 37.1094 106.906 37.7552 106.906 38.4844C106.906 39.2135 107.016 39.8646 107.234 40.4375C107.453 41 107.75 41.474 108.125 41.8594C108.51 42.2448 108.958 42.5365 109.469 42.7344C109.99 42.9323 110.542 43.0312 111.125 43.0312C111.708 43.0312 112.255 42.9062 112.766 42.6562C113.286 42.3958 113.74 42.0573 114.125 41.6406C114.51 41.2135 114.812 40.7292 115.031 40.1875C115.26 39.6354 115.375 39.0677 115.375 38.4844ZM139.109 47H138.078L136.422 44.7031C136.016 45.0677 135.583 45.4115 135.125 45.7344C134.677 46.0469 134.203 46.3229 133.703 46.5625C133.203 46.7917 132.688 46.974 132.156 47.1094C131.635 47.2448 131.104 47.3125 130.562 47.3125C129.385 47.3125 128.276 47.0938 127.234 46.6562C126.203 46.2083 125.297 45.5938 124.516 44.8125C123.745 44.0208 123.135 43.0885 122.688 42.0156C122.24 40.9323 122.016 39.7552 122.016 38.4844C122.016 37.224 122.24 36.0521 122.688 34.9688C123.135 33.8854 123.745 32.9479 124.516 32.1562C125.297 31.3646 126.203 30.7448 127.234 30.2969C128.276 29.849 129.385 29.625 130.562 29.625C130.938 29.625 131.323 29.6562 131.719 29.7188C132.125 29.7812 132.516 29.8854 132.891 30.0312C133.276 30.1667 133.635 30.349 133.969 30.5781C134.302 30.8073 134.583 31.0885 134.812 31.4219V23.6094H139.109V47ZM134.812 38.4844C134.812 37.901 134.698 37.3385 134.469 36.7969C134.25 36.2448 133.948 35.7604 133.562 35.3438C133.177 34.9167 132.724 34.5781 132.203 34.3281C131.693 34.0677 131.146 33.9375 130.562 33.9375C129.979 33.9375 129.427 34.0417 128.906 34.25C128.396 34.4583 127.948 34.7604 127.562 35.1562C127.188 35.5417 126.891 36.0156 126.672 36.5781C126.453 37.1406 126.344 37.776 126.344 38.4844C126.344 39.099 126.453 39.6823 126.672 40.2344C126.891 40.7865 127.188 41.2708 127.562 41.6875C127.948 42.1042 128.396 42.4323 128.906 42.6719C129.427 42.9115 129.979 43.0312 130.562 43.0312C131.146 43.0312 131.693 42.9062 132.203 42.6562C132.724 42.3958 133.177 42.0573 133.562 41.6406C133.948 41.2135 134.25 40.7292 134.469 40.1875C134.698 39.6354 134.812 39.0677 134.812 38.4844ZM158.578 47H157.547L155.891 44.7031C155.484 45.0677 155.052 45.4115 154.594 45.7344C154.146 46.0469 153.672 46.3229 153.172 46.5625C152.672 46.7917 152.156 46.974 151.625 47.1094C151.104 47.2448 150.573 47.3125 150.031 47.3125C148.854 47.3125 147.745 47.1146 146.703 46.7188C145.672 46.3229 144.766 45.75 143.984 45C143.214 44.2396 142.604 43.3125 142.156 42.2188C141.708 41.125 141.484 39.8802 141.484 38.4844C141.484 37.1823 141.708 35.9896 142.156 34.9062C142.604 33.8125 143.214 32.875 143.984 32.0938C144.766 31.3125 145.672 30.7083 146.703 30.2812C147.745 29.8438 148.854 29.625 150.031 29.625C150.573 29.625 151.109 29.6927 151.641 29.8281C152.172 29.9635 152.688 30.151 153.188 30.3906C153.688 30.6302 154.161 30.9115 154.609 31.2344C155.068 31.5573 155.495 31.9062 155.891 32.2812L157.547 30.2969H158.578V47ZM154.281 38.4844C154.281 37.901 154.167 37.3385 153.938 36.7969C153.719 36.2448 153.417 35.7604 153.031 35.3438C152.646 34.9167 152.193 34.5781 151.672 34.3281C151.161 34.0677 150.615 33.9375 150.031 33.9375C149.448 33.9375 148.896 34.0365 148.375 34.2344C147.865 34.4323 147.417 34.724 147.031 35.1094C146.656 35.4948 146.359 35.974 146.141 36.5469C145.922 37.1094 145.812 37.7552 145.812 38.4844C145.812 39.2135 145.922 39.8646 146.141 40.4375C146.359 41 146.656 41.474 147.031 41.8594C147.417 42.2448 147.865 42.5365 148.375 42.7344C148.896 42.9323 149.448 43.0312 150.031 43.0312C150.615 43.0312 151.161 42.9062 151.672 42.6562C152.193 42.3958 152.646 42.0573 153.031 41.6406C153.417 41.2135 153.719 40.7292 153.938 40.1875C154.167 39.6354 154.281 39.0677 154.281 38.4844ZM171.031 47H161.281V42.75H171.031C171.323 42.75 171.573 42.6458 171.781 42.4375C171.99 42.2292 172.094 41.9792 172.094 41.6875C172.094 41.3854 171.99 41.1875 171.781 41.0938C171.573 41 171.323 40.9531 171.031 40.9531H166.594C165.854 40.9531 165.161 40.8125 164.516 40.5312C163.87 40.25 163.307 39.8698 162.828 39.3906C162.349 38.901 161.969 38.3333 161.688 37.6875C161.417 37.0417 161.281 36.349 161.281 35.6094C161.281 34.8698 161.417 34.1771 161.688 33.5312C161.969 32.8854 162.349 32.3229 162.828 31.8438C163.307 31.3646 163.87 30.9896 164.516 30.7188C165.161 30.4375 165.854 30.2969 166.594 30.2969H175.234V34.5469H166.594C166.302 34.5469 166.052 34.651 165.844 34.8594C165.635 35.0677 165.531 35.3177 165.531 35.6094C165.531 35.9115 165.635 36.1719 165.844 36.3906C166.052 36.599 166.302 36.7031 166.594 36.7031H171.031C171.76 36.7031 172.448 36.8281 173.094 37.0781C173.74 37.3177 174.302 37.6562 174.781 38.0938C175.26 38.5312 175.641 39.0573 175.922 39.6719C176.203 40.2865 176.344 40.9583 176.344 41.6875C176.344 42.4271 176.203 43.1198 175.922 43.7656C175.641 44.401 175.26 44.9635 174.781 45.4531C174.302 45.9323 173.74 46.3125 173.094 46.5938C172.448 46.8646 171.76 47 171.031 47ZM196.969 44.7031C195.927 45.599 194.76 46.2865 193.469 46.7656C192.177 47.2448 190.839 47.4844 189.453 47.4844C188.391 47.4844 187.365 47.3438 186.375 47.0625C185.396 46.7917 184.474 46.4062 183.609 45.9062C182.755 45.3958 181.974 44.7865 181.266 44.0781C180.557 43.3698 179.948 42.5885 179.438 41.7344C178.938 40.8698 178.547 39.9479 178.266 38.9688C177.995 37.9792 177.859 36.9531 177.859 35.8906C177.859 34.8281 177.995 33.8021 178.266 32.8125C178.547 31.8229 178.938 30.901 179.438 30.0469C179.948 29.1823 180.557 28.3958 181.266 27.6875C181.974 26.9792 182.755 26.375 183.609 25.875C184.474 25.3646 185.396 24.974 186.375 24.7031C187.365 24.4219 188.391 24.2812 189.453 24.2812C190.839 24.2812 192.177 24.5208 193.469 25C194.76 25.4688 195.927 26.1562 196.969 27.0625L194.594 30.9688C193.938 30.2604 193.161 29.7188 192.266 29.3438C191.37 28.9583 190.432 28.7656 189.453 28.7656C188.464 28.7656 187.536 28.9531 186.672 29.3281C185.807 29.7031 185.052 30.2135 184.406 30.8594C183.76 31.4948 183.25 32.25 182.875 33.125C182.5 33.9896 182.312 34.9115 182.312 35.8906C182.312 36.8698 182.5 37.7917 182.875 38.6562C183.25 39.5104 183.76 40.2604 184.406 40.9062C185.052 41.5521 185.807 42.0625 186.672 42.4375C187.536 42.8125 188.464 43 189.453 43C190.432 43 191.37 42.8125 192.266 42.4375C193.161 42.0521 193.938 41.5052 194.594 40.7969L196.969 44.7031ZM203.422 47H199.125V23.6094H203.422V47ZM211.719 25.7188C211.719 26.1146 211.641 26.4844 211.484 26.8281C211.339 27.1719 211.135 27.474 210.875 27.7344C210.615 27.9844 210.307 28.1875 209.953 28.3438C209.609 28.4896 209.24 28.5625 208.844 28.5625C208.448 28.5625 208.073 28.4896 207.719 28.3438C207.375 28.1875 207.073 27.9844 206.812 27.7344C206.562 27.474 206.359 27.1719 206.203 26.8281C206.057 26.4844 205.984 26.1146 205.984 25.7188C205.984 25.3333 206.057 24.9688 206.203 24.625C206.359 24.2708 206.562 23.9688 206.812 23.7188C207.073 23.4583 207.375 23.2552 207.719 23.1094C208.073 22.9531 208.448 22.875 208.844 22.875C209.24 22.875 209.609 22.9531 209.953 23.1094C210.307 23.2552 210.615 23.4583 210.875 23.7188C211.135 23.9688 211.339 24.2708 211.484 24.625C211.641 24.9688 211.719 25.3333 211.719 25.7188ZM210.984 47H206.688V30.2656H210.984V47ZM235.531 47H231.281V36.375C231.281 36.0833 231.224 35.8073 231.109 35.5469C231.005 35.2865 230.854 35.0573 230.656 34.8594C230.458 34.6615 230.229 34.5104 229.969 34.4062C229.708 34.2917 229.432 34.2344 229.141 34.2344C228.849 34.2344 228.573 34.2917 228.312 34.4062C228.062 34.5104 227.839 34.6615 227.641 34.8594C227.453 35.0573 227.302 35.2865 227.188 35.5469C227.083 35.8073 227.031 36.0833 227.031 36.375V47H222.766V36.375C222.766 36.0833 222.708 35.8073 222.594 35.5469C222.49 35.2865 222.339 35.0573 222.141 34.8594C221.943 34.6615 221.714 34.5104 221.453 34.4062C221.193 34.2917 220.917 34.2344 220.625 34.2344C220.333 34.2344 220.057 34.2917 219.797 34.4062C219.547 34.5104 219.323 34.6615 219.125 34.8594C218.938 35.0573 218.786 35.2865 218.672 35.5469C218.568 35.8073 218.516 36.0833 218.516 36.375V47H214.25V30.2656H215.281L216.438 31.5469C217.031 31.0469 217.682 30.6615 218.391 30.3906C219.109 30.1094 219.854 29.9688 220.625 29.9688C221.406 29.9688 222.167 30.1146 222.906 30.4062C223.656 30.6979 224.312 31.2031 224.875 31.9219C225.135 31.5677 225.432 31.2656 225.766 31.0156C226.099 30.7656 226.448 30.5625 226.812 30.4062C227.188 30.25 227.573 30.1406 227.969 30.0781C228.365 30.0052 228.755 29.9688 229.141 29.9688C230.026 29.9688 230.854 30.1354 231.625 30.4688C232.406 30.8021 233.083 31.2604 233.656 31.8438C234.24 32.4167 234.698 33.0938 235.031 33.875C235.365 34.6562 235.531 35.4896 235.531 36.375V47ZM254.859 47H253.828L252.172 44.7031C251.766 45.0677 251.333 45.4115 250.875 45.7344C250.427 46.0469 249.953 46.3229 249.453 46.5625C248.953 46.7917 248.438 46.974 247.906 47.1094C247.385 47.2448 246.854 47.3125 246.312 47.3125C245.135 47.3125 244.026 47.1146 242.984 46.7188C241.953 46.3229 241.047 45.75 240.266 45C239.495 44.2396 238.885 43.3125 238.438 42.2188C237.99 41.125 237.766 39.8802 237.766 38.4844C237.766 37.1823 237.99 35.9896 238.438 34.9062C238.885 33.8125 239.495 32.875 240.266 32.0938C241.047 31.3125 241.953 30.7083 242.984 30.2812C244.026 29.8438 245.135 29.625 246.312 29.625C246.854 29.625 247.391 29.6927 247.922 29.8281C248.453 29.9635 248.969 30.151 249.469 30.3906C249.969 30.6302 250.443 30.9115 250.891 31.2344C251.349 31.5573 251.776 31.9062 252.172 32.2812L253.828 30.2969H254.859V47ZM250.562 38.4844C250.562 37.901 250.448 37.3385 250.219 36.7969C250 36.2448 249.698 35.7604 249.312 35.3438C248.927 34.9167 248.474 34.5781 247.953 34.3281C247.443 34.0677 246.896 33.9375 246.312 33.9375C245.729 33.9375 245.177 34.0365 244.656 34.2344C244.146 34.4323 243.698 34.724 243.312 35.1094C242.938 35.4948 242.641 35.974 242.422 36.5469C242.203 37.1094 242.094 37.7552 242.094 38.4844C242.094 39.2135 242.203 39.8646 242.422 40.4375C242.641 41 242.938 41.474 243.312 41.8594C243.698 42.2448 244.146 42.5365 244.656 42.7344C245.177 42.9323 245.729 43.0312 246.312 43.0312C246.896 43.0312 247.443 42.9062 247.953 42.6562C248.474 42.3958 248.927 42.0573 249.312 41.6406C249.698 41.2135 250 40.7292 250.219 40.1875C250.448 39.6354 250.562 39.0677 250.562 38.4844Z" fill="white"/>
<circle cx="37.5" cy="37.5" r="37.5" fill="#055C9D"/>
<circle cx="92.5" cy="75.5" r="22.5" fill="#0E86D4"/>
<circle cx="51" cy="98" r="10" fill="#68BBE3"/>
<path d="M130.141 68.9531C130.224 68.9792 130.307 68.9974 130.391 69.0078C130.474 69.013 130.557 69.0156 130.641 69.0156C130.849 69.0156 131.049 68.987 131.242 68.9297C131.435 68.8724 131.615 68.7917 131.781 68.6875C131.953 68.5781 132.104 68.4479 132.234 68.2969C132.37 68.1406 132.479 67.9688 132.562 67.7812L134.125 69.3516C133.927 69.6328 133.698 69.8854 133.438 70.1094C133.182 70.3333 132.904 70.5234 132.602 70.6797C132.305 70.8359 131.99 70.9531 131.656 71.0312C131.328 71.1146 130.99 71.1562 130.641 71.1562C130.052 71.1562 129.497 71.0469 128.977 70.8281C128.461 70.6094 128.008 70.3047 127.617 69.9141C127.232 69.5234 126.927 69.0599 126.703 68.5234C126.479 67.9818 126.367 67.388 126.367 66.7422C126.367 66.0807 126.479 65.4766 126.703 64.9297C126.927 64.3828 127.232 63.9167 127.617 63.5312C128.008 63.1458 128.461 62.8464 128.977 62.6328C129.497 62.4193 130.052 62.3125 130.641 62.3125C130.99 62.3125 131.331 62.3542 131.664 62.4375C131.997 62.5208 132.312 62.6406 132.609 62.7969C132.911 62.9531 133.193 63.1458 133.453 63.375C133.714 63.599 133.943 63.8516 134.141 64.1328L130.141 68.9531ZM131.234 64.5547C131.135 64.5182 131.036 64.4948 130.938 64.4844C130.844 64.474 130.745 64.4688 130.641 64.4688C130.349 64.4688 130.073 64.5234 129.812 64.6328C129.557 64.737 129.333 64.888 129.141 65.0859C128.953 65.2839 128.805 65.5234 128.695 65.8047C128.586 66.0807 128.531 66.3932 128.531 66.7422C128.531 66.8203 128.534 66.9089 128.539 67.0078C128.549 67.1068 128.562 67.2083 128.578 67.3125C128.599 67.4115 128.622 67.5078 128.648 67.6016C128.674 67.6953 128.708 67.7786 128.75 67.8516L131.234 64.5547ZM145.859 71H143.734V65.6875C143.734 65.5417 143.706 65.4036 143.648 65.2734C143.596 65.1432 143.521 65.0286 143.422 64.9297C143.323 64.8307 143.208 64.7552 143.078 64.7031C142.948 64.6458 142.81 64.6172 142.664 64.6172C142.518 64.6172 142.38 64.6458 142.25 64.7031C142.125 64.7552 142.013 64.8307 141.914 64.9297C141.82 65.0286 141.745 65.1432 141.688 65.2734C141.635 65.4036 141.609 65.5417 141.609 65.6875V71H139.477V65.6875C139.477 65.5417 139.448 65.4036 139.391 65.2734C139.339 65.1432 139.263 65.0286 139.164 64.9297C139.065 64.8307 138.951 64.7552 138.82 64.7031C138.69 64.6458 138.552 64.6172 138.406 64.6172C138.26 64.6172 138.122 64.6458 137.992 64.7031C137.867 64.7552 137.755 64.8307 137.656 64.9297C137.562 65.0286 137.487 65.1432 137.43 65.2734C137.378 65.4036 137.352 65.5417 137.352 65.6875V71H135.219V62.6328H135.734L136.312 63.2734C136.609 63.0234 136.935 62.8307 137.289 62.6953C137.648 62.5547 138.021 62.4844 138.406 62.4844C138.797 62.4844 139.177 62.5573 139.547 62.7031C139.922 62.849 140.25 63.1016 140.531 63.4609C140.661 63.2839 140.81 63.1328 140.977 63.0078C141.143 62.8828 141.318 62.7812 141.5 62.7031C141.688 62.625 141.88 62.5703 142.078 62.5391C142.276 62.5026 142.471 62.4844 142.664 62.4844C143.107 62.4844 143.521 62.5677 143.906 62.7344C144.297 62.901 144.635 63.1302 144.922 63.4219C145.214 63.7083 145.443 64.0469 145.609 64.4375C145.776 64.8281 145.859 65.2448 145.859 65.6875V71ZM156.102 71C155.586 71 155.102 70.9036 154.648 70.7109C154.195 70.513 153.797 70.2448 153.453 69.9062C153.115 69.5625 152.846 69.1641 152.648 68.7109C152.456 68.2578 152.359 67.7734 152.359 67.2578V64.7734H151.32V62.6484H152.359V59.3047H154.484V62.6484H157.719V64.7734H154.484V67.2578C154.484 67.4818 154.526 67.6927 154.609 67.8906C154.693 68.0833 154.807 68.2526 154.953 68.3984C155.099 68.5443 155.271 68.6615 155.469 68.75C155.667 68.8333 155.878 68.875 156.102 68.875H157.719V71H156.102ZM162.25 68.9531C162.333 68.9792 162.417 68.9974 162.5 69.0078C162.583 69.013 162.667 69.0156 162.75 69.0156C162.958 69.0156 163.159 68.987 163.352 68.9297C163.544 68.8724 163.724 68.7917 163.891 68.6875C164.062 68.5781 164.214 68.4479 164.344 68.2969C164.479 68.1406 164.589 67.9688 164.672 67.7812L166.234 69.3516C166.036 69.6328 165.807 69.8854 165.547 70.1094C165.292 70.3333 165.013 70.5234 164.711 70.6797C164.414 70.8359 164.099 70.9531 163.766 71.0312C163.438 71.1146 163.099 71.1562 162.75 71.1562C162.161 71.1562 161.607 71.0469 161.086 70.8281C160.57 70.6094 160.117 70.3047 159.727 69.9141C159.341 69.5234 159.036 69.0599 158.812 68.5234C158.589 67.9818 158.477 67.388 158.477 66.7422C158.477 66.0807 158.589 65.4766 158.812 64.9297C159.036 64.3828 159.341 63.9167 159.727 63.5312C160.117 63.1458 160.57 62.8464 161.086 62.6328C161.607 62.4193 162.161 62.3125 162.75 62.3125C163.099 62.3125 163.44 62.3542 163.773 62.4375C164.107 62.5208 164.422 62.6406 164.719 62.7969C165.021 62.9531 165.302 63.1458 165.562 63.375C165.823 63.599 166.052 63.8516 166.25 64.1328L162.25 68.9531ZM163.344 64.5547C163.245 64.5182 163.146 64.4948 163.047 64.4844C162.953 64.474 162.854 64.4688 162.75 64.4688C162.458 64.4688 162.182 64.5234 161.922 64.6328C161.667 64.737 161.443 64.888 161.25 65.0859C161.062 65.2839 160.914 65.5234 160.805 65.8047C160.695 66.0807 160.641 66.3932 160.641 66.7422C160.641 66.8203 160.643 66.9089 160.648 67.0078C160.659 67.1068 160.672 67.2083 160.688 67.3125C160.708 67.4115 160.732 67.5078 160.758 67.6016C160.784 67.6953 160.818 67.7786 160.859 67.8516L163.344 64.5547ZM177.969 71H175.844V65.6875C175.844 65.5417 175.815 65.4036 175.758 65.2734C175.706 65.1432 175.63 65.0286 175.531 64.9297C175.432 64.8307 175.318 64.7552 175.188 64.7031C175.057 64.6458 174.919 64.6172 174.773 64.6172C174.628 64.6172 174.49 64.6458 174.359 64.7031C174.234 64.7552 174.122 64.8307 174.023 64.9297C173.93 65.0286 173.854 65.1432 173.797 65.2734C173.745 65.4036 173.719 65.5417 173.719 65.6875V71H171.586V65.6875C171.586 65.5417 171.557 65.4036 171.5 65.2734C171.448 65.1432 171.372 65.0286 171.273 64.9297C171.174 64.8307 171.06 64.7552 170.93 64.7031C170.799 64.6458 170.661 64.6172 170.516 64.6172C170.37 64.6172 170.232 64.6458 170.102 64.7031C169.977 64.7552 169.865 64.8307 169.766 64.9297C169.672 65.0286 169.596 65.1432 169.539 65.2734C169.487 65.4036 169.461 65.5417 169.461 65.6875V71H167.328V62.6328H167.844L168.422 63.2734C168.719 63.0234 169.044 62.8307 169.398 62.6953C169.758 62.5547 170.13 62.4844 170.516 62.4844C170.906 62.4844 171.286 62.5573 171.656 62.7031C172.031 62.849 172.359 63.1016 172.641 63.4609C172.771 63.2839 172.919 63.1328 173.086 63.0078C173.253 62.8828 173.427 62.7812 173.609 62.7031C173.797 62.625 173.99 62.5703 174.188 62.5391C174.385 62.5026 174.581 62.4844 174.773 62.4844C175.216 62.4844 175.63 62.5677 176.016 62.7344C176.406 62.901 176.745 63.1302 177.031 63.4219C177.323 63.7083 177.552 64.0469 177.719 64.4375C177.885 64.8281 177.969 65.2448 177.969 65.6875V71ZM181.68 74.1875H179.531V62.6328H180.047L180.898 63.6406C181.091 63.4583 181.302 63.2865 181.531 63.125C181.76 62.9635 181.997 62.8255 182.242 62.7109C182.492 62.5911 182.75 62.4974 183.016 62.4297C183.281 62.362 183.549 62.3281 183.82 62.3281C184.409 62.3281 184.961 62.4349 185.477 62.6484C185.997 62.8568 186.451 63.1536 186.836 63.5391C187.227 63.9245 187.534 64.3906 187.758 64.9375C187.982 65.4792 188.094 66.0807 188.094 66.7422C188.094 67.4297 187.982 68.0495 187.758 68.6016C187.534 69.1484 187.227 69.6146 186.836 70C186.451 70.3802 185.997 70.6719 185.477 70.875C184.961 71.0781 184.409 71.1797 183.82 71.1797C183.633 71.1797 183.445 71.1589 183.258 71.1172C183.076 71.0755 182.893 71.0208 182.711 70.9531C182.534 70.8802 182.357 70.7995 182.18 70.7109C182.008 70.6224 181.841 70.5312 181.68 70.4375V74.1875ZM185.953 66.7422C185.953 66.388 185.896 66.0703 185.781 65.7891C185.672 65.5078 185.521 65.2708 185.328 65.0781C185.135 64.8802 184.909 64.7292 184.648 64.625C184.388 64.5208 184.112 64.4688 183.82 64.4688C183.529 64.4688 183.253 64.5208 182.992 64.625C182.737 64.7292 182.513 64.8802 182.32 65.0781C182.128 65.2708 181.974 65.5078 181.859 65.7891C181.75 66.0703 181.695 66.388 181.695 66.7422C181.695 67.0807 181.75 67.3906 181.859 67.6719C181.974 67.9531 182.128 68.1927 182.32 68.3906C182.513 68.5885 182.737 68.7422 182.992 68.8516C183.253 68.9609 183.529 69.0156 183.82 69.0156C184.112 69.0156 184.388 68.9609 184.648 68.8516C184.909 68.7422 185.135 68.5885 185.328 68.3906C185.521 68.1927 185.672 67.9531 185.781 67.6719C185.896 67.3906 185.953 67.0807 185.953 66.7422ZM197.367 66.7422C197.367 67.3672 197.255 67.9505 197.031 68.4922C196.807 69.0286 196.503 69.4948 196.117 69.8906C195.732 70.2812 195.279 70.5911 194.758 70.8203C194.242 71.0443 193.688 71.1562 193.094 71.1562C192.505 71.1562 191.951 71.0443 191.43 70.8203C190.914 70.5911 190.461 70.2812 190.07 69.8906C189.685 69.4948 189.38 69.0286 189.156 68.4922C188.932 67.9505 188.82 67.3672 188.82 66.7422C188.82 66.1068 188.932 65.5182 189.156 64.9766C189.38 64.4349 189.685 63.9688 190.07 63.5781C190.461 63.1823 190.914 62.8724 191.43 62.6484C191.951 62.4245 192.505 62.3125 193.094 62.3125C193.688 62.3125 194.242 62.4193 194.758 62.6328C195.279 62.8411 195.732 63.1406 196.117 63.5312C196.503 63.9167 196.807 64.3828 197.031 64.9297C197.255 65.4714 197.367 66.0755 197.367 66.7422ZM195.219 66.7422C195.219 66.3984 195.161 66.0885 195.047 65.8125C194.938 65.5312 194.786 65.2917 194.594 65.0938C194.401 64.8906 194.174 64.737 193.914 64.6328C193.659 64.5234 193.385 64.4688 193.094 64.4688C192.802 64.4688 192.526 64.5234 192.266 64.6328C192.01 64.737 191.786 64.8906 191.594 65.0938C191.406 65.2917 191.258 65.5312 191.148 65.8125C191.039 66.0885 190.984 66.3984 190.984 66.7422C190.984 67.0651 191.039 67.3646 191.148 67.6406C191.258 67.9167 191.406 68.1562 191.594 68.3594C191.786 68.5625 192.01 68.724 192.266 68.8438C192.526 68.9583 192.802 69.0156 193.094 69.0156C193.385 69.0156 193.659 68.9609 193.914 68.8516C194.174 68.7422 194.401 68.5885 194.594 68.3906C194.786 68.1927 194.938 67.9531 195.047 67.6719C195.161 67.3906 195.219 67.0807 195.219 66.7422ZM205.164 71H203.031V62.6328H203.547L204.25 63.625C204.594 63.3125 204.984 63.0729 205.422 62.9062C205.859 62.7344 206.312 62.6484 206.781 62.6484H208.664V64.7734H206.781C206.557 64.7734 206.346 64.8151 206.148 64.8984C205.951 64.9818 205.779 65.0964 205.633 65.2422C205.487 65.388 205.372 65.5599 205.289 65.7578C205.206 65.9557 205.164 66.1667 205.164 66.3906V71ZM212.828 68.9531C212.911 68.9792 212.995 68.9974 213.078 69.0078C213.161 69.013 213.245 69.0156 213.328 69.0156C213.536 69.0156 213.737 68.987 213.93 68.9297C214.122 68.8724 214.302 68.7917 214.469 68.6875C214.641 68.5781 214.792 68.4479 214.922 68.2969C215.057 68.1406 215.167 67.9688 215.25 67.7812L216.812 69.3516C216.615 69.6328 216.385 69.8854 216.125 70.1094C215.87 70.3333 215.591 70.5234 215.289 70.6797C214.992 70.8359 214.677 70.9531 214.344 71.0312C214.016 71.1146 213.677 71.1562 213.328 71.1562C212.74 71.1562 212.185 71.0469 211.664 70.8281C211.148 70.6094 210.695 70.3047 210.305 69.9141C209.919 69.5234 209.615 69.0599 209.391 68.5234C209.167 67.9818 209.055 67.388 209.055 66.7422C209.055 66.0807 209.167 65.4766 209.391 64.9297C209.615 64.3828 209.919 63.9167 210.305 63.5312C210.695 63.1458 211.148 62.8464 211.664 62.6328C212.185 62.4193 212.74 62.3125 213.328 62.3125C213.677 62.3125 214.018 62.3542 214.352 62.4375C214.685 62.5208 215 62.6406 215.297 62.7969C215.599 62.9531 215.88 63.1458 216.141 63.375C216.401 63.599 216.63 63.8516 216.828 64.1328L212.828 68.9531ZM213.922 64.5547C213.823 64.5182 213.724 64.4948 213.625 64.4844C213.531 64.474 213.432 64.4688 213.328 64.4688C213.036 64.4688 212.76 64.5234 212.5 64.6328C212.245 64.737 212.021 64.888 211.828 65.0859C211.641 65.2839 211.492 65.5234 211.383 65.8047C211.273 66.0807 211.219 66.3932 211.219 66.7422C211.219 66.8203 211.221 66.9089 211.227 67.0078C211.237 67.1068 211.25 67.2083 211.266 67.3125C211.286 67.4115 211.31 67.5078 211.336 67.6016C211.362 67.6953 211.396 67.7786 211.438 67.8516L213.922 64.5547ZM225.945 71H225.43L224.602 69.8516C224.398 70.0339 224.182 70.2057 223.953 70.3672C223.729 70.5234 223.492 70.6615 223.242 70.7812C222.992 70.8958 222.734 70.987 222.469 71.0547C222.208 71.1224 221.943 71.1562 221.672 71.1562C221.083 71.1562 220.529 71.0573 220.008 70.8594C219.492 70.6615 219.039 70.375 218.648 70C218.263 69.6198 217.958 69.1562 217.734 68.6094C217.51 68.0625 217.398 67.4401 217.398 66.7422C217.398 66.0911 217.51 65.4948 217.734 64.9531C217.958 64.4062 218.263 63.9375 218.648 63.5469C219.039 63.1562 219.492 62.8542 220.008 62.6406C220.529 62.4219 221.083 62.3125 221.672 62.3125C221.943 62.3125 222.211 62.3464 222.477 62.4141C222.742 62.4818 223 62.5755 223.25 62.6953C223.5 62.8151 223.737 62.9557 223.961 63.1172C224.19 63.2786 224.404 63.4531 224.602 63.6406L225.43 62.6484H225.945V71ZM223.797 66.7422C223.797 66.4505 223.74 66.1693 223.625 65.8984C223.516 65.6224 223.365 65.3802 223.172 65.1719C222.979 64.9583 222.753 64.7891 222.492 64.6641C222.237 64.5339 221.964 64.4688 221.672 64.4688C221.38 64.4688 221.104 64.5182 220.844 64.6172C220.589 64.7161 220.365 64.862 220.172 65.0547C219.984 65.2474 219.836 65.487 219.727 65.7734C219.617 66.0547 219.562 66.3776 219.562 66.7422C219.562 67.1068 219.617 67.4323 219.727 67.7188C219.836 68 219.984 68.237 220.172 68.4297C220.365 68.6224 220.589 68.7682 220.844 68.8672C221.104 68.9661 221.38 69.0156 221.672 69.0156C221.964 69.0156 222.237 68.9531 222.492 68.8281C222.753 68.6979 222.979 68.5286 223.172 68.3203C223.365 68.1068 223.516 67.8646 223.625 67.5938C223.74 67.3177 223.797 67.0339 223.797 66.7422ZM229.727 71H227.578V59.3047H229.727V71Z" fill="white"/>
</svg>
